<svg xmlns="http://www.w3.org/2000/svg"  viewBox="0 0 64 64" width="64px" height="64px"><radialGradient id="Rrf_2CYl8JxM6uR5nqW08a" cx="31.766" cy="567.553" r="35.923" gradientTransform="translate(0 -534)" gradientUnits="userSpaceOnUse"><stop offset="0" stop-color="#afeeff"/><stop offset=".193" stop-color="#bbf1ff"/><stop offset=".703" stop-color="#d7f8ff"/><stop offset="1" stop-color="#e1faff"/></radialGradient><path fill="url(#Rrf_2CYl8JxM6uR5nqW08a)" d="M62.98,58.412C62.769,60.487,60.896,62,58.81,62L4,62c-2.34,0-4.221-2.031-3.98-4.411 C0.23,55.513,2.104,54,4.19,54L5,54c1.11,0,2-0.9,2-2c0-0.55-0.22-1.05-0.58-1.41C6.058,50.218,5.555,49.998,4.992,50 c-0.932,0.003-1.864-0.315-2.379-1.091C1.038,46.539,2.737,44,5,44h6c3.314,0,6-2.686,6-6v0c0-3.314-2.686-6-6-6H5 c-2.34,0-4.221-2.031-3.98-4.411C1.23,25.513,3.104,24,5.19,24l3.21,0c1.67,0,3.19-1.129,3.525-2.765 C12.385,18.985,10.67,17,8.5,17h-2c-2.4,0-4.36-1.87-4.49-4.24C2,12.67,2,12.59,2,12.5c0-1.24,0.5-2.37,1.32-3.18 C4.13,8.5,5.26,8,6.5,8h13.23c0-0.01,0.01-0.01,0.01-0.02c0.766-0.128,1.329-0.811,1.253-1.627C20.92,5.569,20.2,5,19.412,5L15.5,5 c-1.466,0-2.634-1.254-2.491-2.749C13.134,0.946,14.329,0,15.64,0L48.5,0c1.466,0,2.634,1.254,2.491,2.749 C50.866,4.054,49.671,5,48.36,5L45.5,5C44.67,5,44,5.67,44,6.5S44.67,8,45.5,8h14c1.466,0,2.634,1.254,2.491,2.749 C61.866,12.054,60.671,13,59.36,13l-0.238,0c-0.997,0-1.928,0.675-2.093,1.658C56.819,15.907,57.788,17,59,17l0.81,0 c2.086,0,3.959,1.513,4.17,3.588C64.221,22.969,62.331,25,60,25H48.5c-1.933,0-3.5,1.567-3.5,3.5v0c0,1.933,1.567,3.5,3.5,3.5 l10.369,0c1.451,0,2.789,0.972,3.071,2.395C62.319,36.307,60.848,38,59,38l-8.856,0c-1.308,0-2.5,0.94-2.631,2.241 C47.362,41.737,48.535,43,50,43l10.37,0c1.67,0,3.2,1.115,3.549,2.749C64.399,47.99,62.666,50,60.5,50l-1.378,0 c-0.997,0-1.927,0.675-2.093,1.658C56.819,52.907,57.788,54,59,54C61.331,54,63.221,56.031,62.98,58.412z"/><linearGradient id="Rrf_2CYl8JxM6uR5nqW08b" x1="31.995" x2="31.995" y1="59.227" y2="25.137" gradientUnits="userSpaceOnUse"><stop offset="0" stop-color="#38a563"/><stop offset=".306" stop-color="#39aa67"/><stop offset=".659" stop-color="#3bb872"/><stop offset=".996" stop-color="#3ecc82"/></linearGradient><path fill="url(#Rrf_2CYl8JxM6uR5nqW08b)" d="M37.456,25.802H26.518 c0,22.099-12.348,14.116-13.49,29.112c-0.127,1.664,0.894,3.22,2.501,3.672c2.46,0.692,7.153,1.392,16.459,1.392 s14.016-0.7,16.476-1.392c1.606-0.452,2.628-2.008,2.501-3.672C49.821,39.918,37.456,47.901,37.456,25.802z"/><linearGradient id="Rrf_2CYl8JxM6uR5nqW08c" x1="32.015" x2="32.015" y1="35.318" y2="4.467" gradientUnits="userSpaceOnUse"><stop offset="0" stop-color="#38a563"/><stop offset=".454" stop-color="#3bb973"/><stop offset=".996" stop-color="#3ecc82"/></linearGradient><path fill="url(#Rrf_2CYl8JxM6uR5nqW08c)" d="M37.518,20.084 c2.557-1.988,4.019-5.317,3.296-8.939c-0.695-3.484-3.509-6.285-6.997-6.964c-5.755-1.12-10.792,3.257-10.792,8.811 c0,2.886,1.366,5.447,3.48,7.092c-1.344,0.903-3.521,1.549-4.866,2.548c-0.451,0.335-0.686,0.882-0.583,1.435 c0.067,0.357,0.164,0.748,0.307,1.162c0.127,0.37,0.271,0.703,0.419,0.998c0.238,0.476,0.74,0.762,1.272,0.762h17.924 c0.532,0,1.034-0.286,1.272-0.762c0.147-0.295,0.291-0.628,0.419-0.998c0.142-0.414,0.24-0.805,0.307-1.162 c0.103-0.553-0.132-1.099-0.583-1.435C41.047,21.633,38.862,20.987,37.518,20.084z"/><linearGradient id="Rrf_2CYl8JxM6uR5nqW08d" x1="29.5" x2="29.5" y1="5.178" y2="18.659" gradientUnits="userSpaceOnUse"><stop offset="0" stop-color="#90f0b3"/><stop offset=".633" stop-color="#5dd18d"/><stop offset="1" stop-color="#56be89"/></linearGradient><path fill="url(#Rrf_2CYl8JxM6uR5nqW08d)" d="M32.893,7.007 c0.472,1.365-0.666,3.585-2.54,4.958c-1.874,1.373-3.776,1.381-4.247,0.016c-0.472-1.365,0.666-3.585,2.54-4.958 C30.52,5.65,32.422,5.643,32.893,7.007z"/></svg>